<?xml version="1.0" encoding="UTF-8"?>
<svg width="256" height="256" version="1.1"
     xmlns="http://www.w3.org/2000/svg"
     xmlns:xlink="http://www.w3.org/1999/xlink">
  <defs>
    <linearGradient id="Gradient" x1="0" x2="0" y1="0" y2="1">
      <stop offset="0%" style="stop-color:#FF7800;stop-opacity:1" />
      <stop offset="100%" style="stop-color:#C64600;stop-opacity:1" />
    </linearGradient>
    <filter id="alpha-to-white">
      <feColorMatrix in="SourceGraphic" type="matrix"
                     values="0 0 0 1 0
                             0 0 0 1 0
                             0 0 0 1 0
                             0 0 0 1 0"/>
    </filter>
    <g id="child-svg">
<svg height="16px" viewBox="0 0 16 16" width="16px" xmlns="http://www.w3.org/2000/svg">
    <path d="m 6 0 l -4 4" fill-opacity="0.603922"/>
    <path d="m 6 2 l -4 2" fill-opacity="0.603922"/>
    <g fill="#222222">
        <path d="m 5 7 c -0.308594 0 -0.613281 0.089844 -0.8125 0.28125 l -3.59375 3.71875 l 3.65625 3.71875 c 0.199219 0.191406 0.441406 0.28125 0.75 0.28125 h 1 v -1 c 0 -0.257812 -0.128906 -0.527344 -0.3125 -0.71875 l -1.28125 -1.28125 h 4.59375 c 0.527344 0.007812 1 -0.472656 1 -1 s -0.472656 -1.007812 -1 -1 h -4.625 l 1.21875 -1.28125 c 0.183594 -0.191406 0.40625 -0.460938 0.40625 -0.71875 v -1 z m 0 0"/>
        <path d="m 11 9 c 0.308594 0 0.613281 -0.089844 0.8125 -0.28125 l 3.59375 -3.71875 l -3.65625 -3.71875 c -0.199219 -0.191406 -0.441406 -0.28125 -0.75 -0.28125 h -1 v 1 c 0 0.257812 0.128906 0.527344 0.3125 0.71875 l 1.28125 1.28125 h -4.59375 c -0.527344 -0.007812 -1 0.472656 -1 1 s 0.472656 1.007812 1 1 h 4.625 l -1.21875 1.28125 c -0.183594 0.191406 -0.40625 0.460938 -0.40625 0.71875 v 1 z m 0 0"/>
    </g>
</svg>
</g>
  </defs>
  <rect
      width="256"
      height="256"
      fill="url(#Gradient)"
      ry="0"
      x="0"
      y="0" />
  <use xlink:href="#child-svg" filter="url(#alpha-to-white)"
       transform="matrix(8,0,0,8,64,64)" />
</svg>
