<?xml version="1.0" encoding="UTF-8"?>
<svg height="128px" viewBox="0 0 128 128" width="128px" xmlns="http://www.w3.org/2000/svg" xmlns:xlink="http://www.w3.org/1999/xlink">
    <linearGradient id="a" gradientUnits="userSpaceOnUse" x1="63.36029385866" x2="62.54324850498" y1="116.93105741293" y2="37.85852049197">
        <stop offset="0" stop-color="#8e8d8a"/>
        <stop offset="1" stop-color="#c0c0be"/>
    </linearGradient>
    <linearGradient id="b" gradientUnits="userSpaceOnUse" x1="62.7130500973" x2="62.7130500973" y1="117.17151155806" y2="65.54182898864">
        <stop offset="0" stop-color="#77767b"/>
        <stop offset="1" stop-color="#928f93"/>
    </linearGradient>
    <linearGradient id="c" gradientTransform="matrix(0.243578 -0.162346 0.243578 0.162346 -62.677395 28.610886)" gradientUnits="userSpaceOnUse" x1="278.461853" x2="305.948547" y1="469.994141" y2="442.507446">
        <stop offset="0" stop-color="#76757a"/>
        <stop offset="1" stop-color="#908f93"/>
    </linearGradient>
    <clipPath id="d">
        <rect height="128" width="128"/>
    </clipPath>
    <clipPath id="e">
        <rect height="128" width="128"/>
    </clipPath>
    <filter id="f" height="100%" width="100%" x="0%" y="0%">
        <feColorMatrix in="SourceGraphic" type="matrix" values="0 0 0 0 1 0 0 0 0 1 0 0 0 0 1 0 0 0 1 0"/>
    </filter>
    <mask id="g">
        <g clip-path="url(#e)" filter="url(#f)">
            <g clip-path="url(#d)">
                <path d="m 99.882812 37.859375 c -0.75 0 -1.5 0.046875 -2.246093 0.144531 c -0.746094 0.101563 -1.480469 0.246094 -2.207031 0.441406 c -0.726563 0.195313 -1.4375 0.4375 -2.132813 0.722657 c -0.691406 0.289062 -1.367187 0.621093 -2.015625 0.996093 c -0.652344 0.375 -1.277344 0.792969 -1.871094 1.25 c -0.597656 0.457032 -1.164062 0.953126 -1.695312 1.484376 s -1.023438 1.09375 -1.480469 1.691406 c -0.457031 0.59375 -0.875 1.222656 -1.25 1.871094 c -0.378906 0.652343 -0.710937 1.324218 -0.996094 2.019531 c -0.289062 0.691406 -0.53125 1.40625 -0.726562 2.128906 c -0.101563 0.394531 -0.191407 0.792969 -0.269531 1.191406 c -0.152344 0.449219 -0.308594 0.894531 -0.472657 1.335938 c -0.558593 1.503906 -1.175781 2.988281 -1.839843 4.449219 c -0.667969 1.460937 -1.386719 2.898437 -2.15625 4.304687 c -0.769532 1.410156 -1.589844 2.792969 -2.457032 4.144531 c -0.867187 1.347656 -1.785156 2.667969 -2.746094 3.953125 c -0.964843 1.285157 -1.972656 2.539063 -3.023437 3.75 c -1.050781 1.214844 -2.144531 2.390625 -3.28125 3.523438 c -1.136719 1.136719 -2.3125 2.230469 -3.523437 3.285156 c -1.214844 1.050781 -2.464844 2.058594 -3.75 3.019531 c -1.285157 0.960938 -2.605469 1.878906 -3.957032 2.746094 c -1.351562 0.867188 -2.730468 1.6875 -4.140625 2.457031 c -1.410156 0.769531 -2.84375 1.488281 -4.304687 2.15625 c -1.460938 0.667969 -2.945313 1.28125 -4.449219 1.84375 c -1.503906 0.558594 -3.03125 1.066407 -4.570313 1.519531 c -1.539062 0.453126 -3.097656 0.851563 -4.664062 1.191407 c -1.570312 0.339843 -3.152344 0.625 -4.742188 0.855469 c -1.585937 0.226562 -3.183593 0.398437 -4.785156 0.515624 c -1.601562 0.113282 -3.207031 0.171876 -4.8125 0.171876 c -1.605468 0 -3.210937 -0.058594 -4.8125 -0.171876 c -1.601562 -0.117187 -3.199218 -0.289062 -4.789062 -0.515624 c -0.070313 -0.011719 -0.140625 -0.023438 -0.207032 -0.035157 c -0.382812 -0.0625 -0.839843 -0.253906 -1.144531 -0.199219 c -0.101562 0.066407 -0.1875 0.152344 -0.253906 0.253907 c -0.070313 0.125 -0.109375 0.269531 -0.109375 0.414062 c 0.199219 0.347657 0.484375 0.535157 0.734375 0.800781 c 6.363281 6.847657 14.183594 12.175782 22.882813 15.601563 l -0.003907 0.03125 l 0.164063 0.03125 c 7.253906 2.851563 14.980468 4.320313 22.773437 4.335937 c 8.109375 -0.015624 16.136719 -1.605468 23.636719 -4.679687 l 0.136719 -0.027344 l 0.0625 -0.050781 c 11.421875 -4.722656 21.1875 -12.726562 28.066406 -22.996094 l 0.09375 -0.078125 l 0.035156 -0.117187 c 6.601563 -9.914063 10.234375 -21.511719 10.46875 -33.425782 c 0.023438 -0.375 0.035157 -0.75 0.035157 -1.128906 c 0 0 0 0 0 -0.003906 c 0 -0.265625 -0.003907 -0.527344 -0.015626 -0.792969 c -0.015624 -0.265625 -0.03125 -0.53125 -0.058593 -0.792969 c -0.023438 -0.265624 -0.054688 -0.527343 -0.089844 -0.789062 s -0.078125 -0.523438 -0.128906 -0.785156 c -0.046875 -0.261719 -0.101563 -0.519532 -0.164063 -0.777344 c -0.058594 -0.257812 -0.125 -0.515625 -0.199218 -0.769531 c -0.070313 -0.253907 -0.152344 -0.507813 -0.234376 -0.757813 c -0.085937 -0.253906 -0.175781 -0.503906 -0.269531 -0.75 c -0.097656 -0.246094 -0.199219 -0.492187 -0.304687 -0.734375 c -0.105469 -0.242187 -0.21875 -0.480469 -0.335938 -0.71875 c -0.121094 -0.238281 -0.242187 -0.472656 -0.371094 -0.703125 c -0.128906 -0.230468 -0.265624 -0.460937 -0.402343 -0.683594 c -0.140625 -0.226562 -0.285157 -0.449218 -0.4375 -0.667968 c -0.148438 -0.21875 -0.300781 -0.433594 -0.460938 -0.644532 c -0.160156 -0.210937 -0.324219 -0.417968 -0.496093 -0.621093 c -0.167969 -0.207031 -0.34375 -0.40625 -0.519532 -0.601563 c -0.179687 -0.195312 -0.363281 -0.386718 -0.550781 -0.574218 s -0.378906 -0.371094 -0.574219 -0.550782 c -0.195312 -0.175781 -0.394531 -0.351562 -0.597656 -0.519531 c -0.207031 -0.171875 -0.414062 -0.335937 -0.625 -0.496094 c -0.210938 -0.15625 -0.425781 -0.3125 -0.644531 -0.460937 c -0.21875 -0.152344 -0.441407 -0.296875 -0.667969 -0.433594 c -0.222656 -0.140625 -0.453125 -0.277344 -0.683594 -0.40625 c -0.230468 -0.128906 -0.464844 -0.25 -0.703125 -0.367188 c -0.238281 -0.121093 -0.476562 -0.230468 -0.71875 -0.339843 c -0.242187 -0.105469 -0.488281 -0.207031 -0.734375 -0.304688 c -0.246094 -0.09375 -0.496094 -0.183593 -0.746094 -0.269531 c -0.253906 -0.082031 -0.507812 -0.160156 -0.761718 -0.234375 s -0.511719 -0.140625 -0.769532 -0.199219 c -0.257812 -0.0625 -0.515624 -0.117187 -0.777343 -0.164062 c -0.261719 -0.050782 -0.519531 -0.09375 -0.785157 -0.128906 c -0.261718 -0.035157 -0.523437 -0.066407 -0.789062 -0.089844 c -0.261719 -0.027344 -0.527344 -0.042969 -0.792969 -0.054688 c -0.265625 -0.015625 -0.527343 -0.019531 -0.792969 -0.019531 z m -90.230468 58.945313 v 0.011718 c 0 -0.003906 0 -0.007812 0 -0.011718 z m -0.015625 0.132812 s -0.003907 0.003906 -0.003907 0.007812 c 0.003907 0 0.003907 -0.007812 0.003907 -0.007812 z m -0.023438 0.078125 c 0 0.007813 0 0.011719 -0.003906 0.015625 c 0.003906 -0.003906 0.003906 -0.007812 0.003906 -0.015625 z m -0.015625 0.046875 v 0.007812 s 0 -0.003906 0 -0.007812 z m -0.03125 0.074219 c -0.003906 0.003906 -0.003906 0.011719 -0.007812 0.015625 c 0.003906 -0.003906 0.003906 -0.011719 0.007812 -0.015625 z m 0 0" fill="url(#a)"/>
                <path d="m 82.5 65.542969 c -2.28125 0 -4.550781 0.332031 -6.738281 0.972656 v -0.011719 l -0.011719 0.003906 l -0.167969 0.054688 c -0.257812 0.082031 -0.511719 0.164062 -0.761719 0.253906 l -51.21875 16.75 c -2.386718 0.800782 -4.757812 2.3125 -4.757812 4.941406 c 0.003906 1.75 0.988281 3.210938 2.472656 4.117188 l 6.332032 3.867188 l 33.835937 20.679687 c 1.140625 -0.128906 2.277344 -0.289063 3.410156 -0.480469 c 1.140625 -0.195312 2.273438 -0.417968 3.398438 -0.671875 c 1.125 -0.257812 2.242187 -0.542969 3.355469 -0.859375 c 1.109374 -0.320312 2.210937 -0.667968 3.300781 -1.046875 c 1.089843 -0.378906 2.171875 -0.785156 3.238281 -1.222656 l 0.136719 -0.027344 l 0.0625 -0.050781 c 1.03125 -0.425781 2.050781 -0.882812 3.058593 -1.363281 c 1.003907 -0.480469 2 -0.988281 2.976563 -1.519531 c 0.980469 -0.535157 1.945313 -1.097657 2.894531 -1.679688 c 0.949219 -0.585938 1.882813 -1.199219 2.800782 -1.835938 c 0.917968 -0.632812 1.816406 -1.292968 2.699218 -1.976562 c 0.222656 -0.179688 0.445313 -0.363281 0.664063 -0.546875 c 0.652343 -0.511719 1.292969 -1.035156 1.921875 -1.574219 c 0.84375 -0.730468 1.667968 -1.484375 2.472656 -2.257812 c 0.804688 -0.773438 1.585938 -1.570313 2.347656 -2.382813 c 0.761719 -0.816406 1.5 -1.652343 2.214844 -2.507812 c 0.71875 -0.855469 1.410156 -1.730469 2.078125 -2.625 c 0.671875 -0.890625 1.316406 -1.800781 1.9375 -2.726563 l 0.09375 -0.078125 l 0.035156 -0.113281 v -0.003906 c 0 -13.296875 -10.78125 -24.078125 -24.082031 -24.078125 z m 0 0" fill="url(#b)"/>
                <path d="m 116.871094 59.707031 l 5.363281 -3.578125 c 0.644531 -0.429687 0.644531 -1.121094 0 -1.554687 l -5.695313 -3.792969 c 0.03125 0.113281 0.0625 0.226562 0.089844 0.34375 c 0.0625 0.257812 0.117188 0.515625 0.164063 0.777344 c 0.050781 0.261718 0.09375 0.519531 0.128906 0.785156 c 0.035156 0.261719 0.066406 0.523438 0.089844 0.789062 c 0.027343 0.261719 0.042969 0.527344 0.058593 0.792969 c 0.011719 0.265625 0.015626 0.527344 0.015626 0.792969 v 0.003906 c 0 0.375 -0.011719 0.753906 -0.035157 1.128906 c -0.015625 0.789063 -0.046875 1.578126 -0.09375 2.367188 c -0.023437 0.378906 -0.054687 0.761719 -0.085937 1.140625 z m 0 0" fill="url(#c)"/>
                <path d="m 109.992188 51.089844 c 0 1.382812 -1.121094 2.507812 -2.507813 2.507812 c -1.382813 0 -2.503906 -1.125 -2.503906 -2.507812 c 0 -1.382813 1.121093 -2.503906 2.503906 -2.503906 c 1.386719 0 2.507813 1.121093 2.507813 2.503906 z m 0 0" fill="#241f31"/>
            </g>
        </g>
    </mask>
    <mask id="h">
        <g filter="url(#f)">
            <rect fill-opacity="0.8" height="128" width="128"/>
        </g>
    </mask>
    <linearGradient id="i" gradientTransform="matrix(0 0.37 -0.98462 0 295.38501 -30.360001)" gradientUnits="userSpaceOnUse" x1="300" x2="428" y1="235" y2="235">
        <stop offset="0" stop-color="#f9f06b"/>
        <stop offset="1" stop-color="#f5c211"/>
    </linearGradient>
    <clipPath id="j">
        <rect height="128" width="128"/>
    </clipPath>
    <clipPath id="k">
        <rect height="128" width="128"/>
    </clipPath>
    <path d="m 99.882812 37.859375 c -0.75 0 -1.5 0.046875 -2.246093 0.144531 c -0.746094 0.101563 -1.480469 0.246094 -2.207031 0.441406 c -0.726563 0.195313 -1.4375 0.4375 -2.132813 0.722657 c -0.691406 0.289062 -1.367187 0.621093 -2.015625 0.996093 c -0.652344 0.375 -1.277344 0.792969 -1.871094 1.25 c -0.597656 0.457032 -1.164062 0.953126 -1.695312 1.484376 s -1.023438 1.09375 -1.480469 1.691406 c -0.457031 0.59375 -0.875 1.222656 -1.25 1.871094 c -0.378906 0.652343 -0.710937 1.324218 -0.996094 2.019531 c -0.289062 0.691406 -0.53125 1.40625 -0.726562 2.128906 c -0.101563 0.394531 -0.191407 0.792969 -0.269531 1.191406 c -0.152344 0.449219 -0.308594 0.894531 -0.472657 1.335938 c -0.558593 1.503906 -1.175781 2.988281 -1.839843 4.449219 c -0.667969 1.460937 -1.386719 2.898437 -2.15625 4.304687 c -0.769532 1.410156 -1.589844 2.792969 -2.457032 4.144531 c -0.867187 1.347656 -1.785156 2.667969 -2.746094 3.953125 c -0.964843 1.285157 -1.972656 2.539063 -3.023437 3.75 c -1.050781 1.214844 -2.144531 2.390625 -3.28125 3.523438 c -1.136719 1.136719 -2.3125 2.230469 -3.523437 3.285156 c -1.214844 1.050781 -2.464844 2.058594 -3.75 3.019531 c -1.285157 0.960938 -2.605469 1.878906 -3.957032 2.746094 c -1.351562 0.867188 -2.730468 1.6875 -4.140625 2.457031 c -1.410156 0.769531 -2.84375 1.488281 -4.304687 2.15625 c -1.460938 0.667969 -2.945313 1.28125 -4.449219 1.84375 c -1.503906 0.558594 -3.03125 1.066407 -4.570313 1.519531 c -1.539062 0.453126 -3.097656 0.851563 -4.664062 1.191407 c -1.570312 0.339843 -3.152344 0.625 -4.742188 0.855469 c -1.585937 0.226562 -3.183593 0.398437 -4.785156 0.515624 c -1.601562 0.113282 -3.207031 0.171876 -4.8125 0.171876 c -1.605468 0 -3.210937 -0.058594 -4.8125 -0.171876 c -1.601562 -0.117187 -3.199218 -0.289062 -4.789062 -0.515624 c -0.070313 -0.011719 -0.140625 -0.023438 -0.207032 -0.035157 c -0.382812 -0.0625 -0.839843 -0.253906 -1.144531 -0.199219 c -0.101562 0.066407 -0.1875 0.152344 -0.253906 0.253907 c -0.070313 0.125 -0.109375 0.269531 -0.109375 0.414062 c 0.199219 0.347657 0.484375 0.535157 0.734375 0.800781 c 6.363281 6.847657 14.183594 12.175782 22.882813 15.601563 l -0.003907 0.03125 l 0.164063 0.03125 c 7.253906 2.851563 14.980468 4.320313 22.773437 4.335937 c 8.109375 -0.015624 16.136719 -1.605468 23.636719 -4.679687 l 0.136719 -0.027344 l 0.0625 -0.050781 c 11.421875 -4.722656 21.1875 -12.726562 28.066406 -22.996094 l 0.09375 -0.078125 l 0.035156 -0.117187 c 6.601563 -9.914063 10.234375 -21.511719 10.46875 -33.425782 c 0.023438 -0.375 0.035157 -0.75 0.035157 -1.128906 c 0 0 0 0 0 -0.003906 c 0 -0.265625 -0.003907 -0.527344 -0.015626 -0.792969 c -0.015624 -0.265625 -0.03125 -0.53125 -0.058593 -0.792969 c -0.023438 -0.265624 -0.054688 -0.527343 -0.089844 -0.789062 s -0.078125 -0.523438 -0.128906 -0.785156 c -0.046875 -0.261719 -0.101563 -0.519532 -0.164063 -0.777344 c -0.058594 -0.257812 -0.125 -0.515625 -0.199218 -0.769531 c -0.070313 -0.253907 -0.152344 -0.507813 -0.234376 -0.757813 c -0.085937 -0.253906 -0.175781 -0.503906 -0.269531 -0.75 c -0.097656 -0.246094 -0.199219 -0.492187 -0.304687 -0.734375 c -0.105469 -0.242187 -0.21875 -0.480469 -0.335938 -0.71875 c -0.121094 -0.238281 -0.242187 -0.472656 -0.371094 -0.703125 c -0.128906 -0.230468 -0.265624 -0.460937 -0.402343 -0.683594 c -0.140625 -0.226562 -0.285157 -0.449218 -0.4375 -0.667968 c -0.148438 -0.21875 -0.300781 -0.433594 -0.460938 -0.644532 c -0.160156 -0.210937 -0.324219 -0.417968 -0.496093 -0.621093 c -0.167969 -0.207031 -0.34375 -0.40625 -0.519532 -0.601563 c -0.179687 -0.195312 -0.363281 -0.386718 -0.550781 -0.574218 s -0.378906 -0.371094 -0.574219 -0.550782 c -0.195312 -0.175781 -0.394531 -0.351562 -0.597656 -0.519531 c -0.207031 -0.171875 -0.414062 -0.335937 -0.625 -0.496094 c -0.210938 -0.15625 -0.425781 -0.3125 -0.644531 -0.460937 c -0.21875 -0.152344 -0.441407 -0.296875 -0.667969 -0.433594 c -0.222656 -0.140625 -0.453125 -0.277344 -0.683594 -0.40625 c -0.230468 -0.128906 -0.464844 -0.25 -0.703125 -0.367188 c -0.238281 -0.121093 -0.476562 -0.230468 -0.71875 -0.339843 c -0.242187 -0.105469 -0.488281 -0.207031 -0.734375 -0.304688 c -0.246094 -0.09375 -0.496094 -0.183593 -0.746094 -0.269531 c -0.253906 -0.082031 -0.507812 -0.160156 -0.761718 -0.234375 s -0.511719 -0.140625 -0.769532 -0.199219 c -0.257812 -0.0625 -0.515624 -0.117187 -0.777343 -0.164062 c -0.261719 -0.050782 -0.519531 -0.09375 -0.785157 -0.128906 c -0.261718 -0.035157 -0.523437 -0.066407 -0.789062 -0.089844 c -0.261719 -0.027344 -0.527344 -0.042969 -0.792969 -0.054688 c -0.265625 -0.015625 -0.527343 -0.019531 -0.792969 -0.019531 z m -90.230468 58.945313 v 0.011718 c 0 -0.003906 0 -0.007812 0 -0.011718 z m -0.015625 0.132812 s -0.003907 0.003906 -0.003907 0.007812 c 0.003907 0 0.003907 -0.007812 0.003907 -0.007812 z m -0.023438 0.078125 c 0 0.007813 0 0.011719 -0.003906 0.015625 c 0.003906 -0.003906 0.003906 -0.007812 0.003906 -0.015625 z m -0.015625 0.046875 v 0.007812 s 0 -0.003906 0 -0.007812 z m -0.03125 0.074219 c -0.003906 0.003906 -0.003906 0.011719 -0.007812 0.015625 c 0.003906 -0.003906 0.003906 -0.011719 0.007812 -0.015625 z m 0 0" fill="url(#a)"/>
    <path d="m 82.5 65.542969 c -2.28125 0 -4.550781 0.332031 -6.738281 0.972656 v -0.011719 l -0.011719 0.003906 l -0.167969 0.054688 c -0.257812 0.082031 -0.511719 0.164062 -0.761719 0.253906 l -51.21875 16.75 c -2.386718 0.800782 -4.757812 2.3125 -4.757812 4.941406 c 0.003906 1.75 0.988281 3.210938 2.472656 4.117188 l 6.332032 3.867188 l 33.835937 20.679687 c 1.140625 -0.128906 2.277344 -0.289063 3.410156 -0.480469 c 1.140625 -0.195312 2.273438 -0.417968 3.398438 -0.671875 c 1.125 -0.257812 2.242187 -0.542969 3.355469 -0.859375 c 1.109374 -0.320312 2.210937 -0.667968 3.300781 -1.046875 c 1.089843 -0.378906 2.171875 -0.785156 3.238281 -1.222656 l 0.136719 -0.027344 l 0.0625 -0.050781 c 1.03125 -0.425781 2.050781 -0.882812 3.058593 -1.363281 c 1.003907 -0.480469 2 -0.988281 2.976563 -1.519531 c 0.980469 -0.535157 1.945313 -1.097657 2.894531 -1.679688 c 0.949219 -0.585938 1.882813 -1.199219 2.800782 -1.835938 c 0.917968 -0.632812 1.816406 -1.292968 2.699218 -1.976562 c 0.222656 -0.179688 0.445313 -0.363281 0.664063 -0.546875 c 0.652343 -0.511719 1.292969 -1.035156 1.921875 -1.574219 c 0.84375 -0.730468 1.667968 -1.484375 2.472656 -2.257812 c 0.804688 -0.773438 1.585938 -1.570313 2.347656 -2.382813 c 0.761719 -0.816406 1.5 -1.652343 2.214844 -2.507812 c 0.71875 -0.855469 1.410156 -1.730469 2.078125 -2.625 c 0.671875 -0.890625 1.316406 -1.800781 1.9375 -2.726563 l 0.09375 -0.078125 l 0.035156 -0.113281 v -0.003906 c 0 -13.296875 -10.78125 -24.078125 -24.082031 -24.078125 z m 0 0" fill="url(#b)"/>
    <path d="m 116.871094 59.707031 l 5.363281 -3.578125 c 0.644531 -0.429687 0.644531 -1.121094 0 -1.554687 l -5.695313 -3.792969 c 0.03125 0.113281 0.0625 0.226562 0.089844 0.34375 c 0.0625 0.257812 0.117188 0.515625 0.164063 0.777344 c 0.050781 0.261718 0.09375 0.519531 0.128906 0.785156 c 0.035156 0.261719 0.066406 0.523438 0.089844 0.789062 c 0.027343 0.261719 0.042969 0.527344 0.058593 0.792969 c 0.011719 0.265625 0.015626 0.527344 0.015626 0.792969 v 0.003906 c 0 0.375 -0.011719 0.753906 -0.035157 1.128906 c -0.015625 0.789063 -0.046875 1.578126 -0.09375 2.367188 c -0.023437 0.378906 -0.054687 0.761719 -0.085937 1.140625 z m 0 0" fill="url(#c)"/>
    <path d="m 109.992188 51.089844 c 0 1.382812 -1.121094 2.507812 -2.507813 2.507812 c -1.382813 0 -2.503906 -1.125 -2.503906 -2.507812 c 0 -1.382813 1.121093 -2.503906 2.503906 -2.503906 c 1.386719 0 2.507813 1.121093 2.507813 2.503906 z m 0 0" fill="#241f31"/>
    <g clip-path="url(#k)" mask="url(#g)">
        <g clip-path="url(#j)" mask="url(#h)">
            <path d="m 128 80.640625 v 47.359375 h -128 v -47.359375 z m 0 0" fill="url(#i)"/>
            <path d="m 13.308594 80.640625 l 47.355468 47.359375 h 21.214844 l -47.359375 -47.359375 z m 42.421875 0 l 47.363281 47.359375 h 21.214844 l -47.363282 -47.359375 z m 42.429687 0 l 29.839844 29.839844 v -21.210938 l -8.628906 -8.628906 z m -98.160156 7.90625 v 21.214844 l 18.238281 18.238281 h 21.214844 z m 0 0"/>
        </g>
    </g>
</svg>
